<mxfile host="app.diagrams.net" modified="2022-01-17T15:20:35.707Z" agent="5.0 (X11; Linux x86_64) AppleWebKit/537.36 (KHTML, like Gecko) Chrome/96.0.4664.110 Safari/537.36" etag="RB6lzSMLaM9xaUuLhJkL" version="16.2.7" type="github">
  <diagram id="XMZY4VPxx68gHotbyb-S" name="load balancer">
    <mxGraphModel dx="2254" dy="871" grid="1" gridSize="10" guides="1" tooltips="1" connect="1" arrows="1" fold="1" page="1" pageScale="1" pageWidth="827" pageHeight="1169" math="0" shadow="0">
      <root>
        <mxCell id="0" />
        <mxCell id="1" parent="0" />
        <mxCell id="cOpWvTlWs4BFCgk1d7en-6" style="edgeStyle=orthogonalEdgeStyle;rounded=0;orthogonalLoop=1;jettySize=auto;html=1;" edge="1" parent="1" source="cOpWvTlWs4BFCgk1d7en-1" target="cOpWvTlWs4BFCgk1d7en-2">
          <mxGeometry relative="1" as="geometry">
            <Array as="points">
              <mxPoint x="180" y="390" />
              <mxPoint x="180" y="390" />
            </Array>
          </mxGeometry>
        </mxCell>
        <mxCell id="cOpWvTlWs4BFCgk1d7en-8" style="edgeStyle=orthogonalEdgeStyle;rounded=0;orthogonalLoop=1;jettySize=auto;html=1;entryX=0.5;entryY=0;entryDx=0;entryDy=0;" edge="1" parent="1" source="cOpWvTlWs4BFCgk1d7en-1" target="cOpWvTlWs4BFCgk1d7en-3">
          <mxGeometry relative="1" as="geometry">
            <Array as="points">
              <mxPoint x="340" y="370" />
              <mxPoint x="340" y="370" />
            </Array>
          </mxGeometry>
        </mxCell>
        <mxCell id="cOpWvTlWs4BFCgk1d7en-9" style="edgeStyle=orthogonalEdgeStyle;rounded=0;orthogonalLoop=1;jettySize=auto;html=1;" edge="1" parent="1" source="cOpWvTlWs4BFCgk1d7en-1" target="cOpWvTlWs4BFCgk1d7en-4">
          <mxGeometry relative="1" as="geometry">
            <Array as="points">
              <mxPoint x="500" y="390" />
              <mxPoint x="500" y="390" />
            </Array>
          </mxGeometry>
        </mxCell>
        <mxCell id="cOpWvTlWs4BFCgk1d7en-10" style="edgeStyle=orthogonalEdgeStyle;rounded=0;orthogonalLoop=1;jettySize=auto;html=1;" edge="1" parent="1" source="cOpWvTlWs4BFCgk1d7en-1" target="cOpWvTlWs4BFCgk1d7en-5">
          <mxGeometry relative="1" as="geometry">
            <Array as="points">
              <mxPoint x="700" y="380" />
              <mxPoint x="700" y="380" />
            </Array>
          </mxGeometry>
        </mxCell>
        <mxCell id="cOpWvTlWs4BFCgk1d7en-1" value="Load Balancer" style="rounded=0;whiteSpace=wrap;html=1;" vertex="1" parent="1">
          <mxGeometry x="120" y="300" width="640" height="60" as="geometry" />
        </mxCell>
        <mxCell id="cOpWvTlWs4BFCgk1d7en-2" value="Server 1" style="rounded=0;whiteSpace=wrap;html=1;" vertex="1" parent="1">
          <mxGeometry x="120" y="430" width="120" height="60" as="geometry" />
        </mxCell>
        <mxCell id="cOpWvTlWs4BFCgk1d7en-3" value="Server 2" style="rounded=0;whiteSpace=wrap;html=1;" vertex="1" parent="1">
          <mxGeometry x="280" y="430" width="120" height="60" as="geometry" />
        </mxCell>
        <mxCell id="cOpWvTlWs4BFCgk1d7en-4" value="Server 3" style="rounded=0;whiteSpace=wrap;html=1;" vertex="1" parent="1">
          <mxGeometry x="440" y="430" width="120" height="60" as="geometry" />
        </mxCell>
        <mxCell id="cOpWvTlWs4BFCgk1d7en-5" value="Server n" style="rounded=0;whiteSpace=wrap;html=1;" vertex="1" parent="1">
          <mxGeometry x="640" y="430" width="120" height="60" as="geometry" />
        </mxCell>
        <mxCell id="cOpWvTlWs4BFCgk1d7en-12" style="edgeStyle=orthogonalEdgeStyle;rounded=0;orthogonalLoop=1;jettySize=auto;html=1;entryX=0.5;entryY=0;entryDx=0;entryDy=0;" edge="1" parent="1" source="cOpWvTlWs4BFCgk1d7en-11" target="cOpWvTlWs4BFCgk1d7en-1">
          <mxGeometry relative="1" as="geometry" />
        </mxCell>
        <mxCell id="cOpWvTlWs4BFCgk1d7en-11" value="Server request" style="rounded=0;whiteSpace=wrap;html=1;" vertex="1" parent="1">
          <mxGeometry x="380" y="180" width="120" height="60" as="geometry" />
        </mxCell>
      </root>
    </mxGraphModel>
  </diagram>
</mxfile>
